<?xml version="1.0" standalone="no"?>
<!DOCTYPE svg PUBLIC "-//W3C//DTD SVG 20010904//EN"
 "http://www.w3.org/TR/2001/REC-SVG-20010904/DTD/svg10.dtd">
<svg version="1.0" xmlns="http://www.w3.org/2000/svg"
 width="500.000000pt" height="500.000000pt" viewBox="0 0 500.000000 500.000000"
 preserveAspectRatio="xMidYMid meet">
<metadata>
Created by potrace 1.11, written by Peter Selinger 2001-2013
</metadata>
<g transform="translate(0.000000,500.000000) scale(0.100000,-0.100000)"
fill="#000000" stroke="none">
<path d="M2305 4270 c-47 -7 -88 -14 -160 -26 -16 -2 -70 -16 -120 -30 -302
-86 -556 -235 -780 -459 -233 -233 -394 -514 -469 -820 -24 -97 -29 -124 -47
-250 -8 -62 -5 -377 5 -430 3 -16 9 -46 12 -65 11 -63 13 -74 33 -150 92 -362
324 -714 622 -947 232 -182 543 -320 804 -358 22 -3 65 -9 95 -14 55 -9 393
-7 440 3 14 2 45 8 70 11 25 4 86 18 135 31 50 13 98 26 107 28 46 12 212 83
288 124 174 93 294 184 440 332 92 93 104 107 166 190 133 180 261 459 300
655 4 22 8 42 9 45 1 3 5 28 10 55 4 28 10 59 12 70 3 11 6 103 8 205 3 161 0
203 -21 320 -13 74 -26 140 -27 145 -2 6 -9 30 -16 55 -54 196 -164 411 -310
605 -106 141 -348 353 -505 442 -194 111 -428 192 -651 228 -61 9 -394 13
-450 5z"/>
</g>
</svg>
